<?xml version="1.0" standalone="no"?>
<!DOCTYPE svg PUBLIC "-//W3C//DTD SVG 20010904//EN"
 "http://www.w3.org/TR/2001/REC-SVG-20010904/DTD/svg10.dtd">
<svg version="1.0" xmlns="http://www.w3.org/2000/svg"
 width="260.000000pt" height="260.000000pt" viewBox="0 0 260.000000 260.000000"
 preserveAspectRatio="xMidYMid meet">
<metadata>
Created by potrace 1.11, written by Peter Selinger 2001-2013
</metadata>
<g transform="translate(0.000000,260.000000) scale(0.100000,-0.100000)"
fill="#000000" stroke="none">
<path d="M260 1315 l0 -795 145 0 145 0 2 382 3 383 101 -120 c55 -66 132
-159 171 -208 98 -121 262 -266 374 -331 168 -97 474 -149 743 -126 112 9 328
48 341 61 4 4 -35 189 -41 198 -2 2 -38 -6 -81 -17 -271 -73 -507 -68 -683 14
-131 62 -290 175 -373 266 -106 116 -267 312 -264 320 1 4 148 175 327 379
179 205 327 376 328 381 2 4 -72 8 -165 8 l-168 -1 -305 -366 -305 -367 -3
367 -2 367 -145 0 -145 0 0 -795z"/>
<path d="M1637 1700 c-151 -27 -269 -87 -345 -176 -85 -99 -141 -244 -142
-365 0 -44 3 -48 78 -120 42 -42 97 -89 122 -106 42 -28 163 -93 174 -93 3 0
-6 23 -20 50 -36 72 -57 197 -51 300 12 213 123 330 311 330 166 0 276 -93
276 -232 l0 -35 -137 -1 c-76 -1 -186 -5 -245 -8 l-108 -7 0 -77 0 -78 73 -6
c39 -4 214 -14 388 -24 l317 -17 6 50 c9 77 7 205 -5 255 -39 168 -166 296
-345 345 -69 19 -277 28 -347 15z"/>
</g>
</svg>
